<mxfile host="app.diagrams.net" modified="2023-12-05T15:44:54.996Z" agent="Mozilla/5.0 (Windows NT 10.0; Win64; x64) AppleWebKit/537.36 (KHTML, like Gecko) Chrome/119.0.0.0 Safari/537.36 Edg/119.0.0.0" etag="Oiclz1XB_wArHTb3mt6Q" version="22.1.5" type="github">
  <diagram name="Page-1" id="Dfzsfz5vWeyv4aOJqDF9">
    <mxGraphModel dx="2053" dy="1798" grid="1" gridSize="10" guides="1" tooltips="1" connect="1" arrows="1" fold="1" page="1" pageScale="1" pageWidth="827" pageHeight="1169" math="0" shadow="0">
      <root>
        <mxCell id="0" />
        <mxCell id="1" parent="0" />
        <mxCell id="Poi7maMfP3yisfNedla6-30" value="" style="rounded=0;whiteSpace=wrap;html=1;fillColor=#eeeeee;strokeColor=#36393d;" vertex="1" parent="1">
          <mxGeometry x="-180" y="-180" width="1050" height="600" as="geometry" />
        </mxCell>
        <mxCell id="Poi7maMfP3yisfNedla6-24" value="" style="rounded=1;whiteSpace=wrap;html=1;" vertex="1" parent="1">
          <mxGeometry x="100" y="-120" width="680" height="370" as="geometry" />
        </mxCell>
        <mxCell id="Poi7maMfP3yisfNedla6-10" value="" style="rounded=0;whiteSpace=wrap;html=1;" vertex="1" parent="1">
          <mxGeometry x="150" y="110" width="540" height="90" as="geometry" />
        </mxCell>
        <mxCell id="Poi7maMfP3yisfNedla6-11" value="" style="rounded=1;whiteSpace=wrap;html=1;" vertex="1" parent="1">
          <mxGeometry x="170" y="130" width="400" height="50" as="geometry" />
        </mxCell>
        <mxCell id="Poi7maMfP3yisfNedla6-12" value="Unlock" style="rounded=1;whiteSpace=wrap;html=1;fillColor=#ffe6cc;strokeColor=#d79b00;" vertex="1" parent="1">
          <mxGeometry x="580" y="130" width="100" height="50" as="geometry" />
        </mxCell>
        <mxCell id="Poi7maMfP3yisfNedla6-13" value="" style="group" vertex="1" connectable="0" parent="1">
          <mxGeometry x="150" y="60" width="221" height="33" as="geometry" />
        </mxCell>
        <mxCell id="Poi7maMfP3yisfNedla6-14" value="" style="rounded=1;whiteSpace=wrap;html=1;fillColor=#f5f5f5;gradientColor=#b3b3b3;strokeColor=#666666;" vertex="1" parent="Poi7maMfP3yisfNedla6-13">
          <mxGeometry width="221" height="33" as="geometry" />
        </mxCell>
        <mxCell id="Poi7maMfP3yisfNedla6-15" value="Unlock" style="rounded=1;whiteSpace=wrap;html=1;fillColor=#fff2cc;gradientColor=#ffd966;strokeColor=#d6b656;" vertex="1" parent="Poi7maMfP3yisfNedla6-13">
          <mxGeometry x="110" width="111" height="33" as="geometry" />
        </mxCell>
        <mxCell id="Poi7maMfP3yisfNedla6-16" value="Lock" style="rounded=1;whiteSpace=wrap;html=1;fillColor=#f5f5f5;gradientColor=#b3b3b3;strokeColor=#666666;" vertex="1" parent="1">
          <mxGeometry x="150" y="60" width="111" height="33" as="geometry" />
        </mxCell>
        <mxCell id="Poi7maMfP3yisfNedla6-17" value="" style="rounded=0;whiteSpace=wrap;html=1;" vertex="1" parent="1">
          <mxGeometry x="180" y="580" width="540" height="90" as="geometry" />
        </mxCell>
        <mxCell id="Poi7maMfP3yisfNedla6-18" value="" style="rounded=1;whiteSpace=wrap;html=1;" vertex="1" parent="1">
          <mxGeometry x="200" y="600" width="400" height="50" as="geometry" />
        </mxCell>
        <mxCell id="Poi7maMfP3yisfNedla6-19" value="Lock" style="rounded=1;whiteSpace=wrap;html=1;fillColor=#6d8764;strokeColor=#3A5431;fontColor=#ffffff;" vertex="1" parent="1">
          <mxGeometry x="610" y="600" width="100" height="50" as="geometry" />
        </mxCell>
        <mxCell id="Poi7maMfP3yisfNedla6-20" value="" style="group" vertex="1" connectable="0" parent="1">
          <mxGeometry x="180" y="530" width="221" height="33" as="geometry" />
        </mxCell>
        <mxCell id="Poi7maMfP3yisfNedla6-21" value="" style="rounded=1;whiteSpace=wrap;html=1;fillColor=#f5f5f5;gradientColor=#b3b3b3;strokeColor=#666666;" vertex="1" parent="Poi7maMfP3yisfNedla6-20">
          <mxGeometry width="221" height="33" as="geometry" />
        </mxCell>
        <mxCell id="Poi7maMfP3yisfNedla6-22" value="Unlock" style="rounded=1;whiteSpace=wrap;html=1;fillColor=#bac8d3;strokeColor=#23445d;" vertex="1" parent="Poi7maMfP3yisfNedla6-20">
          <mxGeometry x="110" width="111" height="33" as="geometry" />
        </mxCell>
        <mxCell id="Poi7maMfP3yisfNedla6-23" value="Lock" style="rounded=1;whiteSpace=wrap;html=1;fillColor=#fad7ac;strokeColor=#b46504;" vertex="1" parent="1">
          <mxGeometry x="180" y="530" width="111" height="33" as="geometry" />
        </mxCell>
        <mxCell id="Poi7maMfP3yisfNedla6-25" value="" style="rounded=1;whiteSpace=wrap;html=1;" vertex="1" parent="1">
          <mxGeometry x="-90" y="270" width="870" height="100" as="geometry" />
        </mxCell>
        <mxCell id="Poi7maMfP3yisfNedla6-26" value="" style="rounded=1;whiteSpace=wrap;html=1;" vertex="1" parent="1">
          <mxGeometry x="-80" y="-120" width="150" height="360" as="geometry" />
        </mxCell>
        <mxCell id="Poi7maMfP3yisfNedla6-28" value="Apply" style="rounded=1;whiteSpace=wrap;html=1;" vertex="1" parent="1">
          <mxGeometry x="450" y="290" width="120" height="60" as="geometry" />
        </mxCell>
        <mxCell id="Poi7maMfP3yisfNedla6-29" value="Cancel" style="rounded=1;whiteSpace=wrap;html=1;" vertex="1" parent="1">
          <mxGeometry x="610" y="290" width="120" height="60" as="geometry" />
        </mxCell>
      </root>
    </mxGraphModel>
  </diagram>
</mxfile>
